<?xml version="1.0" encoding="utf-8"?>
<!-- Generator: Adobe Illustrator 27.5.0, SVG Export Plug-In . SVG Version: 6.00 Build 0)  -->
<svg version="1.1" id="Capa_1" xmlns="http://www.w3.org/2000/svg" xmlns:xlink="http://www.w3.org/1999/xlink" x="0px" y="0px"
	 viewBox="0 0 2122 2122" style="enable-background:new 0 0 2122 2122;" xml:space="preserve">
<g>
	<path style="fill:#F5A785;" d="M1671.713,1391.993l-103.619-15.39l-2.418,16.277l-112.307-16.681l5.841-40.255l-43.44-6.302
		c0-0.647,0-1.294,0-1.941c0-2.007-1.559-3.011-3.118-3.012V885.796h61.556l-86.432-349.979c-0.139-0.735-0.309-1.468-0.543-2.198v0
		c-7.534-23.539-63.619-44.255-136.562-51.044l-5.568-15.46c136.336-28.028,156.301-108.716,156.301-108.716
		s-18.979-32.589-46.699-29.582c-27.721,3.008-49.453-4.446-55.956-23.365c-6.501-18.91-17.167-33.444-42.128-33.985
		c-11.648-28.869-39.883-49.265-72.924-49.265c-7.337,0-14.41,1.08-21.148,2.96c-21.306,2.989-38.745,16.956-46.932,35.683
		c-3.339,6.194-12.514,19.392-31.244,22.365c-24.68,3.917-33.279,19.77-37.154,39.396c-3.875,19.626-24.393,29.962-52.265,30.745
		C967.081,354.135,952.702,389,952.702,389s35.754,89.761,204.252,87.315l2.001,5.579c-28.116,2.329-52.755,7.014-71.632,13.448
		c-5.396,1.15-10.747,2.878-15.938,5.383l-125.524,60.57l3.386-13.882l-164.779,7.772l-0.279-0.674
		c-0.622-1.501-2.095-2.741-3.836-2.178l-0.036,0.019l-0.849-1.126l-65.046-156.111H431.818l77.37,185.688h104.291
		c-3.464,1.587-5.844,5.109-5.765,9.161c0.106,5.45,4.61,9.782,10.06,9.676l48.3-0.94c6.135,17.204,19.59,30.847,36.578,37.273
		l40.488,93.88c9.384,21.759,28.4,36.297,49.518,41.187c16.13,4.743,33.982,3.824,50.317-4.058l66.088-31.89
		c0.58,0.365,1.159,0.729,1.74,1.094c1.704,1.071,3.338,0.259,4.124-1.089l61.589,38.715c0.612,0.385,1.255,0.671,1.875,1.035
		c19.722,12.273,45.064,14.562,67.544,3.775c0.536,0.482,1.229,0.77,1.987,0.812v106.361h40.961l-108.2,462.641
		c-11.732,50.162,19.422,100.336,69.584,112.068c3.238,0.757,6.476,1.321,9.703,1.727c4.192,1.241,8.473,2.3,12.927,2.946
		l150.773,21.874v0.453c0,1.704,1.134,2.64,2.427,2.898v173.558h34.487l-0.329,109.237l-18.783-0.056l-0.049,16.478
		c-0.029,9.427-5.909,17.846-14.749,21.118l-75.065,27.783c-17.868,6.614-29.751,23.628-29.808,42.681l-0.052,17.186l119.345,0.359
		l19.387,0.058l104.048,0.313c11.515,0.035,20.878-9.272,20.912-20.787l0.315-104.755l-16.455-0.05l0.33-109.566h43.019v-147.968
		c0.951,0,1.858-0.419,2.456-1.167l17.776,2.579l4.829-33.288l111.943,16.626l-2.759,18.579l16.3,2.421
		c9.324,1.385,16.809,8.416,18.775,17.634l16.689,78.282c3.973,18.635,19.099,32.842,37.946,35.642l17,2.525l17.534-118.051
		l2.849-19.176l15.286-102.92C1690.965,1404.29,1683.103,1393.684,1671.713,1391.993z M905.431,580.804l-26.968,13.013
		c-1.064-0.356-2.128-0.711-3.191-1.067c-1.907-0.638-3.27,0.549-3.682,2.053l-41.886-13.999H905.431z M1223.759,1301.784
		l-39.246-5.694l41.584-177.805v181.04C1224.93,1299.556,1223.95,1300.374,1223.759,1301.784z"/>
	<path style="fill:#EB5E3D;" d="M1415.769,1327.7c0-2.007-1.559-3.011-3.118-3.012V885.796h61.556l-86.432-349.979
		c-0.139-0.735-0.309-1.468-0.543-2.198v0c-7.534-23.539-63.619-44.255-136.562-51.044l6.968,19.348l-0.124,0.019l0.214,0.641
		c0.889,6.473-17.874,14.393-41.906,17.691c-22.64,3.107-41.866,0.999-44.762-4.667l-0.014,0.002l-12.089-33.714
		c-28.116,2.329-52.755,7.013-71.632,13.448c-5.396,1.15-10.747,2.878-15.938,5.383l-125.524,60.57l-4.758,19.509h-35.672
		l-26.968,13.013c-1.064-0.356-2.128-0.711-3.191-1.067c-1.907-0.638-3.27,0.549-3.682,2.053l-41.886-13.999l-34.4-11.497
		l-2.401,7.186l-19.974,59.762c-1.504-0.412-3.327,0.128-3.96,2.025l-0.299,0.893l-42.835,0.833
		c-8.169,0.159-15.98-1.307-23.182-4.031l40.488,93.88c9.384,21.759,28.4,36.297,49.518,41.187
		c16.13,4.744,33.982,3.824,50.317-4.058l66.088-31.89c0.58,0.365,1.159,0.729,1.74,1.094c1.704,1.071,3.338,0.259,4.124-1.089
		l61.589,38.715c0.612,0.385,1.255,0.671,1.875,1.035c19.722,12.273,45.064,14.562,67.544,3.775c0.536,0.482,1.229,0.77,1.987,0.812
		v106.361h40.961l-108.2,462.641c-11.732,50.162,19.422,100.336,69.584,112.068c3.238,0.757,6.476,1.321,9.703,1.727
		c4.192,1.241,8.473,2.3,12.927,2.946l150.773,21.874v0.453c0,1.704,1.134,2.64,2.427,2.898v173.558h34.487h109.048h43.019v-147.968
		c0.951,0,1.858-0.419,2.456-1.167l17.776,2.579l4.829-33.288l15.656-107.918l5.841-40.255l-43.44-6.302
		C1415.769,1328.994,1415.769,1328.347,1415.769,1327.7z M1223.759,1301.784l-39.246-5.694l41.584-177.805v181.039
		C1224.93,1299.556,1223.95,1300.374,1223.759,1301.784z"/>
	<path style="fill:#BCCBE9;" d="M784.189,554.511c-0.622-1.501-2.095-2.741-3.836-2.178l-0.036,0.019l-0.849-1.126l-65.046-156.111
		H431.818l77.37,185.688h104.291c1.194-0.547,2.514-0.872,3.911-0.899l73.088-1.421h0.002l6.864-0.134l-24.916-23.965
		c-3.929-3.779-4.05-10.026-0.271-13.955c3.779-3.929,10.028-4.05,13.955-0.271l39.142,37.649l62.446-1.214l2.307-0.044l2.894-0.056
		l2.401-7.186l34.4,11.497h75.728h35.672l4.758-19.509l3.386-13.882l-164.779,7.772L784.189,554.511z"/>
	<path style="fill:#8E2A53;" d="M1117.922,451.484c-22.145-7.15-37.312-27.189-42.813-52.254l-0.046,0.195l-17.122-20.604
		c-4.44-5.344-4.618-13.041-0.43-18.585l36.943-48.887l0.12-0.158l1.831-2.423l-0.041,0.173
		c17.878-23.021,43.278-35.77,67.654-32.462c-7.571,7.971-12.245,18.72-12.245,30.581c0,20.942,14.5,38.455,33.994,43.166
		c2.024-4.99,5.483-9.804,10.294-13.724c12.438-10.132,28.938-10.469,36.854-0.752c7.915,9.717,4.249,25.807-8.189,35.94
		c-2.736,2.229-5.682,3.899-8.677,5.178c-0.42,1.838-0.945,3.678-1.46,5.519l30.511,84.726
		c136.336-28.028,156.301-108.716,156.301-108.716s-18.979-32.589-46.699-29.582c-27.721,3.008-49.453-4.446-55.956-23.365
		c-6.501-18.91-17.167-33.444-42.128-33.985c-11.648-28.869-39.883-49.265-72.924-49.265c-7.337,0-14.41,1.08-21.148,2.96
		c-21.306,2.989-38.745,16.956-46.932,35.683c-3.339,6.194-12.514,19.392-31.244,22.365c-24.68,3.917-33.279,19.77-37.154,39.396
		c-3.875,19.626-24.393,29.962-52.265,30.745C967.081,354.135,952.702,389,952.702,389s35.754,89.761,204.252,87.315l-8.48-23.651
		C1138.317,454.909,1127.928,454.715,1117.922,451.484z"/>
	<path style="fill:#1F1A3C;" d="M672.276,408.774c10.207,0.141,20.415,0.283,30.623,0.425c17.553,46.69,35.105,93.38,52.658,140.07
		c2.524,6.716,5.049,13.432,7.574,20.148c1.399,3.722,7.429,2.11,6.013-1.658c-17.836-47.443-35.672-94.886-53.508-142.33
		c-2.334-6.209-4.668-12.419-7.003-18.629c1.263-1.394,2.526-2.788,3.79-4.182l0.742-0.819c0.554-0.611,0.914-1.365,0.914-2.205
		c0-0.765-0.34-1.678-0.914-2.205c-0.594-0.545-1.375-0.95-2.205-0.913c-0.803,0.036-1.648,0.299-2.205,0.913
		c-1.686,1.861-3.374,3.722-5.06,5.583c-29.285-0.406-58.569-0.812-87.853-1.218c-47.429-0.658-94.857-1.315-142.287-1.973
		c-10.926-0.152-21.853-0.303-32.779-0.454c-4.014-0.056-4.016,6.18,0,6.236c29.738,0.413,59.476,0.824,89.213,1.237
		C577.419,407.459,624.848,408.116,672.276,408.774z"/>
	<path style="fill:#1F1A3C;" d="M611.248,452.95c-10.341-6.268-20.649,1.491-25.364,10.845c-6.509,12.916-7.07,29.658-2.189,43.198
		c3.508,9.732,12.122,21.381,24.006,17.589c14.153-4.516,18.093-23.87,18.216-36.622
		C625.801,475.788,622.579,459.818,611.248,452.95z M619.682,487.96c-0.094,9.766-2.213,23.204-10.983,29.242
		c-7.927,5.457-14.947-2.645-18.03-9.486c-4.842-10.74-5.072-24.077-1.595-35.232c2.128-6.826,8.246-18.528,17.291-15.029
		c4.426,1.713,7.359,6.205,9.28,10.32C618.576,474.057,619.615,481.085,619.682,487.96z"/>
	<path style="fill:#1F1A3C;" d="M778.176,556.169c2.224,5.37,4.448,10.738,6.672,16.109c0.316,0.766,0.634,1.531,0.95,2.297
		c0.369,0.889,1.058,1.634,1.902,2.019l2.307-0.045c1.294-0.624,2.414-2.163,1.806-3.632c-2.224-5.37-4.448-10.739-6.672-16.109
		c-0.225-0.541-0.449-1.082-0.673-1.623l-0.279-0.674c-0.622-1.501-2.095-2.741-3.836-2.178l-0.036,0.019l-0.31,0.169
		C778.702,553.137,777.563,554.689,778.176,556.169z"/>
	<path style="fill:#EB5E3D;" d="M1546.896,1519.322l16.3,2.421c9.324,1.385,16.809,8.416,18.775,17.634l16.689,78.282
		c3.973,18.635,19.099,32.842,37.946,35.642l17,2.525l17.534-118.051l2.849-19.176l15.286-102.92
		c1.692-11.39-6.17-21.995-17.561-23.687l-103.619-15.39l-2.418,16.277l-16.021,107.863L1546.896,1519.322z"/>
	<path style="fill:#1F1A3C;" d="M1642.218,1448.314c10.59,1.573,20.45-5.737,22.024-16.327c1.573-10.591-5.737-20.451-16.328-22.025
		c-10.591-1.573-20.451,5.737-22.024,16.328C1624.317,1436.881,1631.627,1446.741,1642.218,1448.314z"/>
	<path style="fill:#EB5E3D;" d="M1241.473,1773.141l-0.049,16.478c-0.029,9.427-5.909,17.846-14.749,21.118l-75.065,27.783
		c-17.868,6.614-29.751,23.628-29.808,42.681l-0.052,17.186l119.345,0.359l19.387,0.058l104.048,0.313
		c11.515,0.035,20.878-9.272,20.912-20.787l0.315-104.755l-16.455-0.05l-109.047-0.328L1241.473,1773.141z"/>
	<path style="fill:#1F1A3C;" d="M1344.906,1837.922c-10.706-0.033-19.412,8.621-19.445,19.328
		c-0.032,10.706,8.621,19.412,19.328,19.444c10.708,0.032,19.412-8.621,19.445-19.328
		C1364.266,1846.66,1355.613,1837.954,1344.906,1837.922z"/>
	<path style="fill:#1F1A3C;" d="M1115.467,344.931c3.16,0,5.722-2.561,5.722-5.721c0-3.159-2.562-5.721-5.722-5.721
		s-5.721,2.562-5.721,5.721C1109.746,342.37,1112.307,344.931,1115.467,344.931z"/>
	<path style="fill:#1F1A3C;" d="M1144.15,390.701c0.027-4.014-6.208-4.018-6.236,0c-0.091,13.142-10.827,23.877-23.968,23.967
		c-4.011,0.028-4.02,6.264,0,6.236c7.972-0.054,15.708-3.196,21.358-8.846C1140.953,406.409,1144.095,398.673,1144.15,390.701z"/>
	<path style="fill:#1F1A3C;" d="M1415.769,1329.641c0-0.647,0-1.294,0-1.941c0-2.007-1.559-3.011-3.118-3.012V885.796h-323.769
		l-108.2,462.641c-11.732,50.162,19.422,100.336,69.584,112.068c3.238,0.757,6.476,1.321,9.703,1.727
		c4.192,1.241,8.473,2.3,12.927,2.946l150.773,21.874v0.453c0,1.704,1.134,2.64,2.427,2.898v173.558h34.487h109.048h43.019v-147.968
		c0.951,0,1.858-0.419,2.456-1.167l17.776,2.579l4.829-33.288l15.656-107.918l5.841-40.255L1415.769,1329.641z M1223.759,1301.784
		l-39.246-5.694l41.584-177.805v181.039C1224.93,1299.556,1223.95,1300.374,1223.759,1301.784z"/>
	<path style="fill:#1F1A3C;" d="M1049.494,779.143c31.642-15.13,63.285-30.26,94.928-45.391
		c49.983-23.9,99.964-47.799,149.946-71.698c11.526-5.512,23.053-11.023,34.579-16.535c3.619-1.731,0.459-7.109-3.148-5.385
		c-31.642,15.13-63.285,30.26-94.928,45.391c-49.982,23.9-99.964,47.799-149.946,71.699c-11.526,5.511-23.053,11.023-34.579,16.535
		c-2.247,1.074-1.876,3.55-0.413,4.864c0.536,0.482,1.229,0.77,1.987,0.812C1048.424,779.462,1048.948,779.404,1049.494,779.143z"/>
	<path style="fill:#1F1A3C;" d="M871.59,594.803c-0.412,1.504,0.127,3.326,2.024,3.96c24.04,8.035,48.08,16.07,72.121,24.104
		c15.154,5.065,30.308,10.13,45.462,15.195c4.753,1.588,12.588,6.135,17.634,4.466c6.07-2.009,12.014-5.717,17.774-8.458
		c12.652-6.021,25.303-12.042,37.955-18.062c32.135-15.292,64.271-30.585,96.406-45.877c20.229-9.626,40.457-19.253,60.685-28.879
		c3.622-1.724,0.462-7.103-3.147-5.385c-48.052,22.867-96.104,45.733-144.156,68.6c-22.008,10.473-44.016,20.946-66.023,31.419
		c-0.386,0.184-1.005,0.388-1.548,0.631c-1.862-0.753-6.526-1.997-6.998-2.155c-13.581-4.539-27.162-9.078-40.743-13.617
		c-26.857-8.976-53.714-17.953-80.571-26.928c-1.064-0.356-2.128-0.711-3.191-1.067C873.365,592.113,872.002,593.3,871.59,594.803z
		 M1007.578,636.969l-0.259-0.204L1007.578,636.969z"/>
	<path style="fill:#1F1A3C;" d="M913.949,730.803c-41.481-26.075-82.962-52.15-124.443-78.225c-5.165-3.246-10.33-6.493-15.495-9.74
		c0.324-0.966,0.647-1.933,0.97-2.9c0.637-1.907-0.549-3.271-2.053-3.682c-1.504-0.412-3.327,0.128-3.96,2.025l-0.299,0.893
		c-0.465,1.391-0.929,2.782-1.395,4.173c-0.445,1.332,0.306,2.812,1.433,3.521c41.481,26.075,82.962,52.15,124.443,78.225
		c5.304,3.334,10.608,6.667,15.912,10.002c0.58,0.365,1.159,0.729,1.74,1.094c1.704,1.071,3.338,0.259,4.124-1.089
		C915.71,733.751,915.646,731.869,913.949,730.803z"/>
	<path style="fill:#BCCBE9;" d="M1229.906,1487.505c0-54.125,0-108.25,0-162.375c0-7.635,0-15.27,0-22.906
		c0-2.309-2.056-3.247-3.809-2.899c-1.167,0.231-2.147,1.049-2.338,2.459l-0.089,0.44c0,54.125,0,108.25,0,162.375
		c0,7.484,0,14.969,0,22.453v0.453c0,1.704,1.134,2.64,2.427,2.898C1227.85,1490.752,1229.906,1489.818,1229.906,1487.505z"/>
	<path style="fill:#BCCBE9;" d="M1409.533,1327.7c0,54.125,0,108.25,0,162.375c0,7.635,0,15.271,0,22.906
		c0,2.006,1.559,3.011,3.118,3.012c0.951,0,1.858-0.419,2.456-1.167c0.381-0.477,0.662-1.062,0.662-1.845
		c0-54.125,0-108.25,0-162.375c0-6.988,0-13.976,0-20.964c0-0.647,0-1.294,0-1.941c0-2.007-1.559-3.011-3.118-3.012
		C1411.092,1324.687,1409.533,1325.69,1409.533,1327.7z"/>
</g>
</svg>
