<?xml version="1.0" encoding="utf-8"?>
<!-- Generator: Adobe Illustrator 27.5.0, SVG Export Plug-In . SVG Version: 6.00 Build 0)  -->
<svg version="1.1" id="Layer_1" xmlns="http://www.w3.org/2000/svg" xmlns:xlink="http://www.w3.org/1999/xlink" x="0px" y="0px"
	 viewBox="0 0 2665.109 2100" style="enable-background:new 0 0 2665.109 2100;" xml:space="preserve">
<g>
	<rect x="0" y="0" style="fill-rule:evenodd;clip-rule:evenodd;fill:#FFFFFF;" width="2661.883" height="2100"/>
	<g>
		<path style="fill-rule:evenodd;clip-rule:evenodd;fill:#93D6DE;" d="M3.244,100.828C33.555,83.44,63.55,77.363,93.851,84.003
			c34.41,7.502,68.876,32.038,101.974,76.117c38.171,50.738,75.835,120.177,113.93,200.496
			c40.994,86.395,82.692,185.359,127.698,287.266c51.453,116.708,104.657,244.8,161.886,356.875
			c62.255,121.93,130.925,225.508,207.735,272.964c95.624,59.385,199.859,25.248,313.893-45.055
			c127.278-78.443,267.749-202.83,436.302-291.552c420.799-219.779,810.705-19.845,1107.84,368.682c0-26.672,0-52.294,0-77.917
			c-293.889-362.718-680.306-539.654-1095.985-314.755c-170.41,95.042-314.39,225.397-444.359,309.241
			c-115.675,74.653-221.822,112.092-318.796,54.32c-77.636-46.18-146.645-148.932-209.658-269.493
			C538.454,900.505,484.216,773.78,432.71,660.487c-44.793-97.556-86.902-192.412-128.196-273.594
			c-38.528-75.76-76.53-139.947-114.86-184.814c-32.741-38.115-66.054-57.472-99.892-60.924
			c-28.97-2.944-57.735,5.739-86.518,23.915V100.828z"/>
		<path style="fill-rule:evenodd;clip-rule:evenodd;fill:#3C5F9D;" d="M3.244,154.079c28.934-20.614,57.847-31.493,86.967-30.592
			c33.876,1.068,67.358,18.118,99.947,54.639c38.229,42.823,76.276,105.208,114.317,179.224
			c40.965,79.682,82.851,172.755,127.343,269.804c52.258,114.326,107.225,243.394,165.589,355.73
			c63.774,122.756,134.114,227.047,213.081,271.201c99.94,55.784,208.919,11.217,329.574-72.852
			c135.475-94.387,287.632-238.807,462.844-348.088c393.563-229.832,768.653-99.919,1062.203,212.67c0-10.748,0-21.514,0-31.775
			c-293.533-302.704-665.133-423.5-1057.889-190.76c-176.28,112.411-329.376,258.923-465.798,355.327
			c-121.321,85.682-231.088,131.899-331.477,76.678c-79.334-43.628-149.589-146.942-213.917-269.193
			C537.14,874.169,482.67,746.339,430.13,632.894c-44.521-95.417-86.443-187.045-127.698-264.776
			c-38.369-72.291-76.605-132.708-114.739-173.374c-32.28-34.381-65.405-49.801-99.093-49.463
			c-28.652,0.282-57.117,11.855-85.356,32.62V154.079z"/>
		<path style="fill-rule:evenodd;clip-rule:evenodd;fill:#D52E39;" d="M3.244,174.844c27.011-21.572,54.48-34.794,82.148-37.422
			c31.877-3.038,63.755,8.498,94.779,38.115c36.596,35.057,72.863,88.216,109.87,153.528
			c39.767,70.209,79.494,154.353,121.314,244.819c52.753,109.261,106.1,236.621,163.487,350.929
			c62.929,125.336,130.925,235.45,208.974,290.558c95.247,67.602,201.209,35.265,320.514-41.678
			c133.86-86.32,284.444-229.409,465.9-352.025c402.473-267.273,789.884-179.188,1094.879,109.334c0-7.164,0-14.348,0-22.546
			c-304.994-281.732-690.867-364.883-1091.371-94.986c-183.144,123.423-333.821,270.085-468.591,358.235
			c-119.213,77.992-226.082,111.493-321.603,44.755c-78.593-54.81-147.048-163.724-210.09-287.876
			c-57.567-113.37-111.286-240.037-163.77-350.047c-42.128-88.141-82.042-171.103-121.667-240.167
			c-36.924-64.339-73.069-116.708-109.974-150.077c-30.809-28.098-62.199-38.509-94.133-34.289
			c-27.019,3.582-54.057,17.35-80.665,39.185V174.844z"/>
		<path style="fill-rule:evenodd;clip-rule:evenodd;fill:#1187CC;" d="M3.244,202.097c26.289-22.152,53.018-36.577,79.689-41.021
			c31.446-5.234,62.875,3.601,93.196,29.992c36.961,31.193,73.049,82.064,109.532,144.599
			c39.316,67.414,79.578,148.596,121.444,235.121c53.289,109.713,107.216,236.998,165.345,351.267
			c63.784,125.411,133.073,235.319,212.209,289.528c97.143,66.55,206.284,29.635,328.364-53.646
			c137.304-93.665,294.395-246.404,478.779-377.949c392.213-265.413,771.54-198.093,1073.307,63.888c0-22.039,0-44.079,0-65.612
			c-301.729-239.979-674.36-289.78-1061.452-20.128c-187.066,137.942-346.832,296.702-486.581,394.925
			c-123.686,86.921-234.486,127.061-333.25,61.673c-79.691-52.671-149.823-161.865-213.88-285.307
			c-58.438-112.619-113.462-237.803-167.07-343.989c-42.195-82.907-82.561-160.111-121.952-222.892
			c-36.867-58.746-73.059-104.926-109.88-132.012c-30.198-22.133-60.989-27.555-91.769-19.751
			c-25.398,6.433-50.813,21.872-76.033,44.06V202.097z"/>
		<path style="fill-rule:evenodd;clip-rule:evenodd;fill:#F68DBF;" d="M3.244,288.794c25.21-22.396,50.634-38.132,76.238-45.279
			c31.137-8.722,62.462-4.053,93.027,17.406c37.898,26.618,75.675,72.948,114.015,132.502
			c41.192,63.98,83.02,143.229,126.575,228.631c55.014,105.602,111.22,232.213,171.816,344.513
			c66.335,122.945,138.896,229.073,221.129,271.015c106.392,54.132,223.549-5.403,354.718-109.43
			c148.969-118.16,319.34-295.848,520.249-437.446c350.496-241.706,698.463-193.33,984.098,20.934c0-6.678,0-13.845,0-21.533
			c-285.374-207.68-632.532-249.734-979.502-7.128c-203.329,142.93-374.15,323.168-523.758,443.072
			c-131.882,105.679-249.368,166.04-356.349,112.281c-82.457-41.415-155.497-146.456-222.235-268.781
			C522.52,858.206,466.173,732.365,411.42,626.761c-43.854-83.788-85.871-161.444-126.93-224.148
			c-38.255-58.41-75.685-103.728-113.848-128.937c-30.396-20.07-61.448-23.729-92.361-14.369
			c-25.2,7.635-50.221,23.616-75.037,45.936V288.794z"/>
		<path style="fill-rule:evenodd;clip-rule:evenodd;fill:#95CF4A;" d="M3.244,345.553c24.393-22.246,48.994-38.528,73.753-46.874
			c31.26-10.543,62.247-8.705,92.887,9.959c38.874,23.446,77.242,67.863,116.474,125.372
			c42.335,62.049,85.532,139.591,130.278,223.455c55.586,104.179,112.542,228.708,174.451,337.443
			c68.127,119.662,142.536,220.612,225.911,255.501c109.421,46.219,229.025-22.734,363.187-134.976
			c152.703-127.783,326.835-313.854,534.401-459.318c334.629-232.288,672.391-192.731,950.524,1.688c0-17.425,0-34.85,0-52.782
			c-265.003-152.253-588.903-157.149-935.723,23.408c-199.878,184.871-379.29,376.57-538.258,501.447
			c-138.877,109.09-264.007,167.876-374.957,123.459c-84.294-33.726-159.041-134.377-227.571-252.312
			c-62.622-107.761-120.403-230.414-176.702-331.421c-45.712-82.008-89.679-156.942-132.848-215.595
			c-38.584-52.427-76.755-91.498-114.701-110.442c-29.983-14.951-60.54-14.162-90.86-1.577
			c-23.577,9.773-47.004,26.637-70.245,48.806V345.553z"/>
		<path style="fill-rule:evenodd;clip-rule:evenodd;fill:#BCBBDA;" d="M3.244,439.863c23.108-22.62,46.395-40.234,69.832-51.019
			c30.688-14.142,61.89-16.563,92.484-2.908c83.057,36.915,166.705,169.209,257.049,326.057
			c120.722,210.888,254.235,512.382,417.198,554.51c119.22,31.439,245.007-57.246,384.626-188.011
			c158.546-148.502,341.523-351.643,560.794-504.044c307.956-211.901,619.457-192.711,879.883-38.115c0-6.152,0-12.811,0-18.963
			c-258.814-149.326-568.439-165.026-874.781,48.055c-221.673,155.029-405.643,361.377-564.273,511.379
			c-140.07,132.454-267.029,221.851-387.075,191.089C676.01,1226.25,541.961,924.719,420.939,715.595
			C330.567,560.924,246.853,431.33,163.712,397.717c-30.377-12.398-61.327-9.21-91.808,5.478
			c-23.033,11.104-45.936,28.736-68.661,51.207V439.863z"/>
		<path style="fill-rule:evenodd;clip-rule:evenodd;fill:#FBCF4C;" d="M3.244,491.633c22.321-22.283,44.811-40.046,67.441-51.77
			c30.547-15.792,61.6-20.294,92.324-9.396c39.765,14.273,80.047,50.439,121.124,100.933
			c46.05,56.608,92.933,130.906,141.28,211.825c123.283,206.272,260.406,503.884,425.647,533.896
			c124.118,23.371,254.442-74.167,397.616-213.187c163.038-158.328,344.984-370.754,569.301-525.426
			c295.031-200.702,596.91-190.46,847.132-53.439c0-11.78,0-23.072,0-33.82c-238.443-99.713-529.386-84.839-835.036,64.243
			c-212.875,193.462-399.754,411.758-570.463,565.736c-149.138,134.519-285.766,220.389-410.464,198.479
			c-166.563-29.224-304.71-328.373-428.978-527.855c-48.046-77.148-95.23-147.132-141.222-199.39
			c-40.796-46.347-81.04-78.61-120.928-89.245c-30.031-7.859-60.417-1.463-90.484,15.773
			c-21.572,12.381-42.946,30.294-64.291,52.182V491.633z"/>
		<path style="fill-rule:evenodd;clip-rule:evenodd;fill:#6368BA;" d="M3.244,553.195c20.717-21.345,41.584-38.995,62.629-51.487
			c29.601-17.596,59.489-25.004,89.305-18.514c39.69,8.797,80.037,39.202,120.834,83.658
			c46.086,50.231,93.194,117.851,141.372,192.748c124.502,196.332,263.763,494.974,430.666,522.66
			c125.759,22.21,263.51-66.137,413.719-202.868c172.622-157.128,363.214-379.213,576.896-577.347
			c301.615-148.594,589.333-168.101,826.444-76.941c0-6.659,0-13.318,0-19.995c-234.167-85.965-520.515-62.95-819.729,85.663
			c-215.276,201.003-406.862,425.584-580.647,585.245c-151.202,138.906-289.311,228.827-416.42,207.782
			C680.858,1257.163,541.22,957.9,415.988,763.652c-48.018-74.448-95.269-141.28-141.439-190.03
			c-41.05-43.347-81.199-72.721-120.928-80.375c-29.852-5.701-59.236,2.384-88.863,20.521
			c-20.669,12.642-41.171,30.311-61.514,51.526V553.195z"/>
		<path style="fill-rule:evenodd;clip-rule:evenodd;fill:#EC6FA7;" d="M3.244,587.747c19.968-21.122,40.178-38.791,60.388-51.639
			c29.412-18.683,58.851-27.555,88.479-22.941c39.794,6.34,80.759,34.42,122.157,76.829
			c46.705,47.851,94.122,113.744,142.872,187.76c126.471,192.731,267.937,490.624,436.791,511.858
			c129.03,16.654,264.476-92.849,414.703-244.022c172.379-173.487,361.639-406.413,593.103-572.584
			c274.698-197.195,563.616-209.125,803.372-109.411c0-6.657,0-12.811,0-18.964c-239.737-93.542-524.452-75.535-799.865,119.558
			c-230.17,172.117-423.763,403.674-596.067,578.98c-150.048,152.654-285.954,263.061-415.246,247.305
			c-169.398-20.446-311.417-318.113-438.46-509.288c-48.768-72.815-96.242-137.64-142.949-184.101
			c-41.453-41.248-82.156-68.182-121.979-73.436c-29.391-3.938-58.813,5.459-87.764,24.461
			c-19.966,13.092-39.83,30.668-59.535,51.526V587.747z"/>
		<path style="fill-rule:evenodd;clip-rule:evenodd;fill:#EC008C;" d="M2665.109,524.028
			c-305.35,232.532-598.844,396.433-874.95,486.844c-229.513,75.149-440.954,99.047-642.293,64.562
			c-163.562-27.48-309.729-97.614-432.458-180.238c-106.972-72.047-200.373-155.78-280.785-236.547
			c-64.863-65.388-121.829-129.894-171.168-184.721c-45.356-50.364-85.769-93.974-121.304-124.942
			c-35.413-30.613-64.825-42.448-89.762-40.91c-18.466,1.145-34.719,9.679-49.144,23.821v-17.292
			c14.152-12.775,30.002-20.183,47.934-20.427c23.831-0.338,52.146,11.722,85.692,41.154
			c34.973,31.118,75.385,75.008,120.928,125.972c49.595,55.523,107.029,121.022,171.581,187.629
			c80.629,82.87,174.509,169.002,283.628,244.387c124.558,86.059,273.949,160.562,441.526,192.477
			c198.378,38.49,407.164,21.91,635.288-41.724c274.007-76.455,568.306-220.96,875.288-429.823
			C2665.109,583.994,2665.109,554.265,2665.109,524.028z"/>
		<path style="fill-rule:evenodd;clip-rule:evenodd;fill:#EC008C;" d="M2665.109,401.018
			c-318.123,248.326-619.158,427.364-899.709,527.734c-232.515,83.206-447.069,112.28-651.307,78.554
			c-165.927-27.292-308.818-95.23-431.98-178.456c-105.547-71.354-198.262-155.611-275.055-235.628
			c-63.914-65.255-118.827-128.43-167.033-182.507c-43.826-49.163-82.849-91.836-117.203-121.529
			c-50.494-43.591-89.191-44.21-119.577-19.807v-7.111c30.067-22.976,68.248-21.57,117.843,21.572
			c34.343,29.823,73.34,72.89,117.419,122.541c48.451,54.565,103.353,118.058,167.258,183.688
			c77.59,80.752,170.644,165.796,276.369,238.124c123.498,84.501,267.365,154.278,434.623,183.465
			c203.16,34.963,417.236,9.734,648.606-68.146c279.538-94.105,579.992-263.838,899.747-501.998
			C2665.109,428.178,2665.109,414.335,2665.109,401.018z"/>
		<path style="fill-rule:evenodd;clip-rule:evenodd;fill:#EC008C;" d="M2665.109,305.168
			c-292.896,236.718-576.635,413.297-843.176,523.29c-222.986,91.984-425.995,139.084-621.117,132.012
			c-169.18-4.763-323.693-60.417-457.357-136.645c-112.909-64.395-214.001-146.12-299.966-226.532
			C374.411,533.05,313.91,468.657,261.626,412.328c-47.776-51.468-90.279-97.312-127.203-131.843
			c-31.878-29.28-58.992-43.574-82.11-46.743c-18.26-2.514-34.569,2.026-49.069,11.93V241c14.461-9.565,30.574-13.768,48.637-11.104
			c22.857,3.338,49.697,17.632,80.779,46.687c37.186,34.569,79.54,80.805,127.418,132.519
			c52.417,56.608,113.303,121.452,182.367,186.202c86.498,80.938,187.337,162.944,300.743,228.238
			c133.956,77.148,288.712,134.039,459.76,140.099c193.499,8.403,395.044-34.12,618.687-120.459
			c265.358-102.471,551.893-268.172,843.475-494.965C2665.109,333.868,2665.109,320.025,2665.109,305.168z"/>
		<path style="fill-rule:evenodd;clip-rule:evenodd;fill:#F58345;" d="M2665.109,319.011
			c-292.913,230.771-580.874,401.988-848.277,507.121c-224.824,88.385-429.729,131.357-622.675,123.198
			c-172.659-6.529-328.888-64.675-462.111-142.275c-114.073-66.456-214.17-149.026-300.622-230.264
			C362.68,511.93,303.002,447.349,251.073,390.702c-47.193-51.47-88.552-97.669-125.701-131.471
			c-51.676-47.456-91.076-52.913-122.128-33.613v-13.355c29.956-16.768,68.052-9.959,117.365,35.902
			c36.577,34.082,78.255,80.637,125.578,132.744c52.258,57.528,111.795,123.235,181.035,189.504
			c86.416,82.888,187.779,167.54,303.212,236.435c135.295,80.75,294.263,141.918,470.393,151.952
			c190.798,12.287,392.925-23.99,615.668-102.527c265.191-93.486,552.476-247.07,848.615-457.825
			C2665.109,371.794,2665.109,345.647,2665.109,319.011z"/>
		<path style="fill-rule:evenodd;clip-rule:evenodd;fill:#EC008C;" d="M2665.109,461.998
			c-324.05,217.752-625.423,371.617-903.687,455.932c-230.151,69.738-441.357,91.31-642.049,56.646
			C940.889,943.927,790.812,869.93,662.438,779.913c-108.67-76.173-201.996-165.362-281.546-249.996
			c-63.746-67.301-118.189-132.295-166.217-187.366C170.792,292.226,132.5,249.14,98.841,219.372
			c-38.856-33.705-70.049-38.227-95.597-24.328v-4.031c25.519-13.43,56.45-8.536,94.641,24.927
			c33.369,29.881,71.774,72.984,115.252,123.555c47.607,55.371,102.181,120.626,165.917,188.321
			c79.803,84.764,173.637,174.48,283.123,251.478c129.143,90.822,280.307,166.357,460.414,198.151
			c199.089,35.265,410.483,16.862,639.602-47.55c277.157-77.917,578.847-222.498,902.916-429.446
			C2665.109,488.145,2665.109,474.827,2665.109,461.998z"/>
		<path style="fill-rule:evenodd;clip-rule:evenodd;fill:#FFF685;" d="M2665.109,576.829
			c-343.409,197.325-653.428,330.709-936.812,395.87c-232.346,53.402-445.108,60.342-645.247,12.606
			c-174.151-40.929-323.6-123.592-447.651-217.003c-106.672-80.298-198.076-170.99-274.343-255.285
			c-60.999-67.694-113.706-132.425-159.362-186.84c-41.893-49.951-79.163-92.08-111.998-120.309
			c-34.26-29.654-62.612-34.026-86.452-22.357v-0.92c22.444-8.365,49.313-5.664,82.513,12.079
			c30.461,37.741,66.204,85.74,107.534,139.01c44.989,57.96,97.744,123.648,158.48,190.518
			C428.855,608.585,521.3,696.801,629.689,775.28c125.887,91.16,278.375,172.567,456.267,218.09
			c197.721,50.926,408.345,50.195,640.409,6.135c281.772-53.516,593.704-172.004,938.744-350.404
			C2665.109,625.017,2665.109,600.914,2665.109,576.829z"/>
		<path style="fill-rule:evenodd;clip-rule:evenodd;fill:#EC008C;" d="M2665.109,702.409
			c-386.324,174.76-717.859,286.14-1012.59,326.712c-239.585,32.975-453.736,19.171-647.104-48.449
			c-171.63-59.161-312.327-151.314-429.007-249.959c-100.313-84.801-185.414-176.637-255.65-259.974
			c-56.301-67.076-104.826-130.213-146.983-182.265c-38.809-47.924-72.617-87.484-103.071-112.281
			c-25.753-21.065-47.97-25.529-67.46-18.345v-3.826c19.207-6.621,40.929-1.969,65.97,18.85
			c30.432,24.985,64.224,64.844,102.761,112.807c42.118,52.407,90.916,115.657,147.215,183.069
			c70.218,84.051,155.806,176.562,256.684,262.189c117.447,99.696,258.981,192.694,431.135,252.961
			c192.823,68.332,405.718,84.632,645.491,54.695c293.738-36.651,626.266-142.949,1012.61-311.594
			C2665.109,718.803,2665.109,711.112,2665.109,702.409z"/>
		<path style="fill-rule:evenodd;clip-rule:evenodd;fill:#B89CCA;" d="M2665.109,792.106
			c-407.034,156.079-747.965,251.047-1048.116,275.807c-240.112,19.797-450.792-4.258-645.464-83.189
			c-168.618-68.596-308.874-166.282-422.103-268.022c-97.17-87.296-179.618-180.031-246.824-263.201
			c-54.659-66.832-100.839-129.35-140.971-180.219c-37.036-46.951-69.646-85.139-98.766-108.435
			c-22.34-17.896-42.016-22.19-59.62-16.92v2.495c16.299-4.295,34.982-2.85,56.441,5.927
			c27.545,32.432,59.216,76.247,95.643,126.367c39.775,54.714,86.216,117.889,141.691,184.084
			c68.023,82.851,151.606,173.205,250.962,258.624c115.677,99.469,259.713,196.651,433.705,268.379
			c191.718,80.132,400.541,108.989,641.16,96.571c296.439-15.258,637.875-95.503,1042.264-233.18
			C2665.109,835.153,2665.109,814.146,2665.109,792.106z"/>
		<path style="fill-rule:evenodd;clip-rule:evenodd;fill:#A25641;" d="M2665.109,903.316
			c-404.406,125.599-745.057,195.873-1041.515,204.313c-240.054,6.792-447.546-25.012-637.66-105.742
			c-175.586-74.185-320.719-173.036-437.437-274.418c-99.911-86.79-184.243-178.306-252.79-262.338
			c-55.438-67.151-102.452-130.87-142.434-185.716c-36.726-50.344-68.313-94.498-95.839-127.174
			c-20.502-8.328-38.424-10.072-54.19-6.34v-4.126c15.466-3.357,32.676-1.669,52.463,6.246
			c27.509,32.825,59.161,76.998,95.795,127.643c39.782,55.016,86.424,118.94,141.86,186.127
			c68.267,84.184,152.355,176.451,252.462,264.176c117.027,102.527,262.64,202.861,438.75,278.676
			c189.562,81.979,396.809,116.191,636.3,112.254c295.69-4.915,636.583-70.706,1044.235-189.477
			C2665.109,920.236,2665.109,911.534,2665.109,903.316z"/>
		<path style="fill-rule:evenodd;clip-rule:evenodd;fill:#EC008C;" d="M2665.109,1062.229
			c-390.602,113.527-726.224,171.262-1017.429,174.077c-237.186,2.326-447.772-31.925-632.419-105.228
			c-176.881-69.694-319.905-173.571-438.487-285.026c-101.778-95.643-187.385-199.163-257.855-294.864
			c-56.545-76.735-105.013-149.495-147.301-211.861c-38.705-57.098-72.844-106.411-103.334-141.374
			c-24.215-27.874-45.683-42.448-65.04-46.668v-5.853c19.123,4.577,40.376,19.021,64.149,46.499
			c30.726,35.451,64.347,85.008,103.005,142.5c42.016,62.518,90.448,135.915,146.973,212.969
			c70.714,96.167,156.509,200.852,258.333,297.432c119.051,112.937,263.201,218.822,441.413,290.821
			c184.112,74.617,393.903,111.343,631.312,113.22c291.244,2.363,626.059-48.808,1016.68-153.848
			C2665.109,1084.267,2665.109,1072.977,2665.109,1062.229z"/>
		<path style="fill-rule:evenodd;clip-rule:evenodd;fill:#9BD3AE;" d="M2665.109,1980.741
			c-491.477,31.736-907.344-26.524-1283.013-190.199c-244.078-103.764-456.888-263.838-628.349-429.389
			C612.262,1224.6,491.578,1078.378,392.701,944.828c-76.83-103.315-141.439-200.74-196.651-284.266
			c-49.632-75.105-92.585-140.679-130.167-190.049c-23.323-30.818-43.948-51.562-62.639-64.074v-4.258
			c18.195,12.606,38.301,33.05,60.905,63.062c37.28,49.745,80.291,115.469,129.848,190.704
			c54.985,83.508,118.967,181.27,195.787,284.961c98.86,133.795,219.573,280.843,362.09,418.857
			c172.275,166.864,386.952,329.603,633.711,436.855c372.162,164.99,788.029,232.815,1279.525,215.897
			C2665.109,2002.763,2665.109,1991.507,2665.109,1980.741z"/>
		<path style="fill-rule:evenodd;clip-rule:evenodd;fill:#F58220;" d="M2665.109,1031.466
			c-292.2,167.173-581.231,273.94-849.91,323.197c-225.518,41.34-427.608,45.13-619.513,4.126
			c-200.673-41.678-379.496-143.604-527.377-262.601c-123.104-99.047-229.129-213.54-317.683-321.75
			c-68.941-84.614-128.242-165.946-179.487-236.38c-46.226-63.53-86.573-119.332-121.435-160.71
			c-16.814-19.958-32.168-34.009-46.461-43.199v-10.447c13.084,9.229,27.171,22.695,42.55,40.927
			c35.086,41.755,75.03,97.952,121.041,161.97c51.095,71.089,110.442,153.152,179.357,238.684
			c89.03,110.423,195.825,227.3,319.98,329.368c149.456,122.822,330.69,229.25,535.911,276.706
			c190.818,45.692,391.031,49.368,614.392,18.719c265.715-36.502,553.432-125.186,848.634-270.442
			C2665.109,1090.412,2665.109,1061.197,2665.109,1031.466z"/>
		<path style="fill-rule:evenodd;clip-rule:evenodd;fill:#FFF685;" d="M2665.109,564.525
			c-31.85,25.997-69.871,51.076-104.967,75.704c-374.882,222.066-688.97,373.438-969.241,448.231
			c-228.143,60.885-434.323,71.428-627.972,20.746c-168.741-43.301-313.724-133.768-433.565-237.532
			c-101.834-88.16-188.641-187.967-260.21-281.321c-56.833-73.641-105.658-144.261-147.833-203.985
			C82.803,331.805,48.787,284.948,18.56,252.855c-5.309-5.589-10.391-10.41-15.316-14.556v-2.814
			c4.688,3.92,9.483,8.441,14.386,13.599c30.209,32.226,64.168,79.044,102.706,134.002c42.11,60.042,90.701,130.887,147.787,204.716
			c71.822,93.73,158.668,194.362,260.969,283.403c120.432,104.853,266.954,197.4,438.385,242.426
			c194.709,52.071,403.551,44.342,636.535-13.355c288.823-71.475,607.509-220.274,992.557-439.959
			c24.891-14.799,48.207-31.495,68.54-48.132C2665.109,596.3,2665.109,580.412,2665.109,564.525z"/>
		<path style="fill-rule:evenodd;clip-rule:evenodd;fill:#EC008C;" d="M2665.109,851.566
			c-386.662,87.371-717.746,128.449-1002.537,126.817c-232.87-1.331-436.985-32.43-617.617-94.873
			c-200.141-68.632-358.216-168.666-484.134-272.543c-106.372-87.745-194.484-181.42-265.189-266.089
			c-56.825-66.849-104.525-129.029-145.857-180.181C111.783,117.652,78.779,79.032,49.386,55.136
			C32.58,42.023,17.425,36.153,3.432,35.815c0.036-1.087,0.075-2.232,0.102-3.376c13.731,0.488,28.615,6.565,44.634,19.49
			c29.645,23.896,63.089,62.31,100.875,109.672c40.975,51.376,88.479,114.026,145.012,181.308
			c70.97,85.158,159.052,179.656,266.222,268.152c126.705,104.628,285.326,205.617,486.815,275.487
			c180.089,63.25,384.747,95.832,616.269,99.45c283.983,4.427,615.086-33.087,1001.748-114.962
			C2665.109,864.885,2665.109,858.225,2665.109,851.566z"/>
		<path style="fill-rule:evenodd;clip-rule:evenodd;fill:#827DA9;" d="M2665.109,1138.58
			c-356.875,110.404-679.369,163.9-968.473,161.349c-236.36-2.101-450.436-42.166-646.655-124.512
			C840.06,1088.685,672.07,968.124,538.537,846.013C427.147,744.126,334.985,637.659,260.602,543.61
			c-58.335-73.547-107.899-141.147-150.085-195.057C71.726,298.979,38.161,259.306,8.543,236.067
			c-1.763-1.37-3.526-2.664-5.299-3.884v-6.171c0.807,0.263,1.613,0.526,2.42,0.807c27.695,33.688,60.277,79.812,98.465,133.12
			c41.548,58.035,91.395,126.331,150.546,199.69c75.226,93.373,169.229,197.4,282.934,297.077
			c136.966,120.065,309.663,239.745,522.802,330.079c195.675,83.808,407.087,127.625,642.078,137.304
			c287.51,11.891,607.057-27.724,962.621-120.384C2665.109,1182.171,2665.109,1160.114,2665.109,1138.58z"/>
		<path style="fill-rule:evenodd;clip-rule:evenodd;fill:#A3238E;" d="M2665.109,1412.81
			c-486.395,93.298-869.697,130.626-1190.484,94.875c-256.674-28.625-472.607-101.551-667.007-230.039
			c-164.838-108.942-297.301-238.844-403.645-366.694C313.151,801.729,238.31,690.61,177.565,590.766
			c-40.432-66.513-75.535-129.275-106.007-184.702c-25.369-46.18-47.934-88.085-68.313-123.836v-2.27
			c20.193,35.695,42.757,77.544,67.854,123.442c30.236,55.335,65.04,117.532,104.938,183.557
			C236.499,686.972,311.21,798.521,402.389,908.72c106.747,128.993,239.848,260.546,406.017,372.039
			c193.856,130.101,409.555,204.716,665.374,236.604c319.774,39.878,703.565,8.778,1191.329-75.854
			C2665.109,1432.28,2665.109,1423.051,2665.109,1412.81z"/>
		<path style="fill-rule:evenodd;clip-rule:evenodd;fill:#EC008C;" d="M2665.109,1769.047
			c-593.33,17.819-1079.403-81.67-1474.563-293.7c-257.93-138.504-457.862-303.117-613.163-460.069
			C450.492,887.036,346.567,757.894,264.916,647.77c-62.63-84.259-115.515-160.543-160.28-221.073
			C65.931,374.345,32.58,332.329,3.244,306.595V304.1c29.328,25.959,62.293,67.581,100.399,119.633
			c44.417,60.661,97.078,137.022,159.717,221.523c81.097,110.293,185.368,239.943,312.683,368.899
			c155.666,157.7,356.574,324.828,615.301,464.531c393.536,213.757,878.279,316.659,1473.766,306.755
			C2665.109,1780.339,2665.109,1774.675,2665.109,1769.047z"/>
		<path style="fill-rule:evenodd;clip-rule:evenodd;fill:#D3E280;" d="M2665.109,503.019
			c-425.359,259.788-782.365,431.867-1090.64,516.442c-245.419,67.349-464.615,77.027-664.887,20.652
			C762.687,999.223,638.88,921.98,533.858,832.284c-90.139-76.979-167.615-165.101-233.453-248.307
			c-53.786-67.602-99.836-132.821-140.633-189.093c-37.627-51.881-70.846-96.824-100.689-129.198
			c-20.529-22.284-38.978-35.415-55.84-41.267v-12.473c15.671,6.379,32.731,19.282,51.733,40.028
			c29.804,32.562,63.127,78.238,100.53,130.831c40.647,57.192,87.013,123.611,141.288,192.543
			c66.054,84.991,144.355,174.912,235.74,254.761c106.382,92.943,233.058,174.255,382.901,219.61
			c198.912,60.726,415.473,59.113,660.01,4.652c306.736-68.332,662.636-217.996,1089.664-448.842
			C2665.109,571.709,2665.109,537.345,2665.109,503.019z"/>
	</g>
</g>
</svg>
